<svg width="145" height="27" viewBox="0 0 145 27" fill="none" xmlns="http://www.w3.org/2000/svg">
<path d="M1.6 7.14H4.72V21H1.6V7.14ZM11.6081 7.14C11.8481 7.58 12.1215 8.12667 12.4281 8.78C12.7481 9.42 13.0748 10.12 13.4081 10.88C13.7548 11.6267 14.0948 12.3933 14.4281 13.18C14.7615 13.9667 15.0748 14.7067 15.3681 15.4C15.6615 14.7067 15.9748 13.9667 16.3081 13.18C16.6415 12.3933 16.9748 11.6267 17.3081 10.88C17.6548 10.12 17.9815 9.42 18.2881 8.78C18.6081 8.12667 18.8881 7.58 19.1281 7.14H21.9681C22.1015 8.06 22.2215 9.09333 22.3281 10.24C22.4481 11.3733 22.5481 12.56 22.6281 13.8C22.7215 15.0267 22.8015 16.26 22.8681 17.5C22.9481 18.74 23.0148 19.9067 23.0681 21H20.0281C19.9881 19.6533 19.9348 18.1867 19.8681 16.6C19.8015 15.0133 19.7015 13.4133 19.5681 11.8C19.3281 12.36 19.0615 12.98 18.7681 13.66C18.4748 14.34 18.1815 15.02 17.8881 15.7C17.6081 16.38 17.3348 17.0333 17.0681 17.66C16.8015 18.2733 16.5748 18.8 16.3881 19.24H14.2081C14.0215 18.8 13.7948 18.2733 13.5281 17.66C13.2615 17.0333 12.9815 16.38 12.6881 15.7C12.4081 15.02 12.1215 14.34 11.8281 13.66C11.5348 12.98 11.2681 12.36 11.0281 11.8C10.8948 13.4133 10.7948 15.0133 10.7281 16.6C10.6615 18.1867 10.6081 19.6533 10.5681 21H7.52813C7.58146 19.9067 7.64146 18.74 7.70813 17.5C7.78813 16.26 7.86813 15.0267 7.94813 13.8C8.04146 12.56 8.14146 11.3733 8.24813 10.24C8.36813 9.09333 8.49479 8.06 8.62813 7.14H11.6081ZM29.5573 7.14C29.7973 7.58 30.0707 8.12667 30.3773 8.78C30.6973 9.42 31.024 10.12 31.3573 10.88C31.704 11.6267 32.044 12.3933 32.3773 13.18C32.7107 13.9667 33.024 14.7067 33.3173 15.4C33.6107 14.7067 33.924 13.9667 34.2573 13.18C34.5907 12.3933 34.924 11.6267 35.2573 10.88C35.604 10.12 35.9307 9.42 36.2373 8.78C36.5573 8.12667 36.8373 7.58 37.0773 7.14H39.9173C40.0507 8.06 40.1707 9.09333 40.2773 10.24C40.3973 11.3733 40.4973 12.56 40.5773 13.8C40.6707 15.0267 40.7507 16.26 40.8173 17.5C40.8973 18.74 40.964 19.9067 41.0173 21H37.9773C37.9373 19.6533 37.884 18.1867 37.8173 16.6C37.7507 15.0133 37.6507 13.4133 37.5173 11.8C37.2773 12.36 37.0107 12.98 36.7173 13.66C36.424 14.34 36.1307 15.02 35.8373 15.7C35.5573 16.38 35.284 17.0333 35.0173 17.66C34.7507 18.2733 34.524 18.8 34.3373 19.24H32.1573C31.9707 18.8 31.744 18.2733 31.4773 17.66C31.2107 17.0333 30.9307 16.38 30.6373 15.7C30.3573 15.02 30.0707 14.34 29.7773 13.66C29.484 12.98 29.2173 12.36 28.9773 11.8C28.844 13.4133 28.744 15.0133 28.6773 16.6C28.6107 18.1867 28.5573 19.6533 28.5173 21H25.4773C25.5307 19.9067 25.5907 18.74 25.6573 17.5C25.7373 16.26 25.8173 15.0267 25.8973 13.8C25.9907 12.56 26.0907 11.3733 26.1973 10.24C26.3173 9.09333 26.444 8.06 26.5773 7.14H29.5573ZM43.8266 7.14H46.9466V21H43.8266V7.14ZM56.9147 9.54C55.4614 9.54 54.408 9.94667 53.7547 10.76C53.1147 11.56 52.7947 12.66 52.7947 14.06C52.7947 14.74 52.8747 15.36 53.0347 15.92C53.1947 16.4667 53.4347 16.94 53.7547 17.34C54.0747 17.74 54.4747 18.0533 54.9547 18.28C55.4347 18.4933 55.9947 18.6 56.6347 18.6C56.9814 18.6 57.2747 18.5933 57.5147 18.58C57.768 18.5667 57.988 18.54 58.1747 18.5V13.68H61.2947V20.54C60.9214 20.6867 60.3214 20.84 59.4947 21C58.668 21.1733 57.648 21.26 56.4347 21.26C55.3947 21.26 54.448 21.1 53.5947 20.78C52.7547 20.46 52.0347 19.9933 51.4347 19.38C50.8347 18.7667 50.368 18.0133 50.0347 17.12C49.7147 16.2267 49.5547 15.2067 49.5547 14.06C49.5547 12.9 49.7347 11.8733 50.0947 10.98C50.4547 10.0867 50.948 9.33333 51.5747 8.72C52.2014 8.09333 52.9347 7.62 53.7747 7.3C54.628 6.98 55.5347 6.82 56.4947 6.82C57.148 6.82 57.7347 6.86667 58.2547 6.96C58.788 7.04 59.2414 7.14 59.6147 7.26C60.0014 7.36667 60.3147 7.48 60.5547 7.6C60.808 7.72 60.988 7.81333 61.0947 7.88L60.1947 10.38C59.768 10.1533 59.2747 9.96 58.7147 9.8C58.168 9.62667 57.568 9.54 56.9147 9.54ZM68.2577 6.98C70.3377 6.98 71.931 7.35333 73.0377 8.1C74.1443 8.83333 74.6977 9.98 74.6977 11.54C74.6977 12.5133 74.471 13.3067 74.0177 13.92C73.5777 14.52 72.9377 14.9933 72.0977 15.34C72.3777 15.6867 72.671 16.0867 72.9777 16.54C73.2843 16.98 73.5843 17.4467 73.8777 17.94C74.1843 18.42 74.4777 18.9267 74.7577 19.46C75.0377 19.98 75.2977 20.4933 75.5377 21H72.0377C71.7843 20.5467 71.5243 20.0867 71.2577 19.62C71.0043 19.1533 70.7377 18.7 70.4577 18.26C70.191 17.82 69.9243 17.4067 69.6577 17.02C69.391 16.62 69.1243 16.26 68.8577 15.94H67.3177V21H64.1977V7.34C64.8777 7.20667 65.5777 7.11333 66.2977 7.06C67.031 7.00667 67.6843 6.98 68.2577 6.98ZM68.4377 9.64C68.211 9.64 68.0043 9.64667 67.8177 9.66C67.6443 9.67333 67.4777 9.68667 67.3177 9.7V13.46H68.1977C69.371 13.46 70.211 13.3133 70.7177 13.02C71.2243 12.7267 71.4777 12.2267 71.4777 11.52C71.4777 10.84 71.2177 10.36 70.6977 10.08C70.191 9.78667 69.4377 9.64 68.4377 9.64ZM87.4425 21C87.2958 20.52 87.1292 20.0267 86.9425 19.52C86.7692 19.0133 86.5958 18.5067 86.4225 18H81.0225C80.8492 18.5067 80.6692 19.0133 80.4825 19.52C80.3092 20.0267 80.1492 20.52 80.0025 21H76.7625C77.2825 19.5067 77.7758 18.1267 78.2425 16.86C78.7092 15.5933 79.1625 14.4 79.6025 13.28C80.0558 12.16 80.4958 11.1 80.9225 10.1C81.3625 9.08667 81.8158 8.1 82.2825 7.14H85.2625C85.7158 8.1 86.1625 9.08667 86.6025 10.1C87.0425 11.1 87.4825 12.16 87.9225 13.28C88.3758 14.4 88.8358 15.5933 89.3025 16.86C89.7692 18.1267 90.2625 19.5067 90.7825 21H87.4425ZM83.7025 10.28C83.6358 10.48 83.5358 10.7533 83.4025 11.1C83.2692 11.4467 83.1158 11.8467 82.9425 12.3C82.7692 12.7533 82.5758 13.2533 82.3625 13.8C82.1625 14.3467 81.9558 14.92 81.7425 15.52H85.6825C85.4692 14.92 85.2625 14.3467 85.0625 13.8C84.8625 13.2533 84.6692 12.7533 84.4825 12.3C84.3092 11.8467 84.1558 11.4467 84.0225 11.1C83.8892 10.7533 83.7825 10.48 83.7025 10.28ZM101.216 7.14V9.8H97.0359V21H93.9159V9.8H89.7359V7.14H101.216ZM103.221 7.14H106.341V21H103.221V7.14ZM112.169 14.06C112.169 14.74 112.249 15.3533 112.409 15.9C112.583 16.4467 112.823 16.92 113.129 17.32C113.449 17.7067 113.836 18.0067 114.289 18.22C114.743 18.4333 115.263 18.54 115.849 18.54C116.423 18.54 116.936 18.4333 117.389 18.22C117.856 18.0067 118.243 17.7067 118.549 17.32C118.869 16.92 119.109 16.4467 119.269 15.9C119.443 15.3533 119.529 14.74 119.529 14.06C119.529 13.38 119.443 12.7667 119.269 12.22C119.109 11.66 118.869 11.1867 118.549 10.8C118.243 10.4 117.856 10.0933 117.389 9.88C116.936 9.66667 116.423 9.56 115.849 9.56C115.263 9.56 114.743 9.67333 114.289 9.9C113.836 10.1133 113.449 10.42 113.129 10.82C112.823 11.2067 112.583 11.68 112.409 12.24C112.249 12.7867 112.169 13.3933 112.169 14.06ZM122.749 14.06C122.749 15.2467 122.569 16.2933 122.209 17.2C121.863 18.0933 121.383 18.8467 120.769 19.46C120.156 20.06 119.423 20.5133 118.569 20.82C117.729 21.1267 116.823 21.28 115.849 21.28C114.903 21.28 114.009 21.1267 113.169 20.82C112.329 20.5133 111.596 20.06 110.969 19.46C110.343 18.8467 109.849 18.0933 109.489 17.2C109.129 16.2933 108.949 15.2467 108.949 14.06C108.949 12.8733 109.136 11.8333 109.509 10.94C109.883 10.0333 110.383 9.27333 111.009 8.66C111.649 8.04667 112.383 7.58667 113.209 7.28C114.049 6.97333 114.929 6.82 115.849 6.82C116.796 6.82 117.689 6.97333 118.529 7.28C119.369 7.58667 120.103 8.04667 120.729 8.66C121.356 9.27333 121.849 10.0333 122.209 10.94C122.569 11.8333 122.749 12.8733 122.749 14.06ZM134.65 21C133.757 19.4133 132.79 17.8467 131.75 16.3C130.71 14.7533 129.603 13.2933 128.43 11.92V21H125.35V7.14H127.89C128.33 7.58 128.817 8.12 129.35 8.76C129.883 9.4 130.423 10.0867 130.97 10.82C131.53 11.54 132.083 12.2933 132.63 13.08C133.177 13.8533 133.69 14.6 134.17 15.32V7.14H137.27V21H134.65Z" fill="white"/>
</svg>
